nColumns=19
nRows=143
DataType=double
version=3
OpenSimVersion=4.1
endheader
time	ground_force_1_vx	ground_force_1_vy	ground_force_1_vz	ground_force_1_px	ground_force_1_py	ground_force_1_pz	ground_force_1_mx	ground_force_1_my	ground_force_1_mz	ground_force_2_vx	ground_force_2_vy	ground_force_2_vz	ground_force_2_px	ground_force_2_py	ground_force_2_pz	ground_force_2_mx	ground_force_2_my	ground_force_2_mz
1.595	0	0	0	0.169077	0	-0.194186	0	0	0	0	0	0	1.46325	0	-0.403952	0	0	0
1.6	0	0	0	0.168848	0	-0.191956	0	0	0	0	0	0	1.46538	0	-0.4063	0	0	0
1.605	0	0	0	0.170796	0	-0.191154	0	0	0	0	0	0	1.46378	0	-0.409975	0	0	0
1.61	0	0	0	0.176959	0	-0.190723	0	0	0	0	0	0	1.45871	0	-0.414567	0	0	0
1.615	0	0	0	0.186461	0	-0.191214	0	0	0	0	0	0	1.44974	0	-0.419116	0	0	0
1.62	0	0	0	0.197862	0	-0.192057	0	0	0	0	0	0	1.43834	0	-0.42289	0	0	0
1.625	0	0	0	0.211508	0	-0.19325	0	0	0	0	0	0	1.42345	0	-0.424398	0	0	0
1.63	0	0	0	0.226731	0	-0.195022	0	0	0	0	0	0	1.40598	0	-0.423458	0	0	0
1.635	0	0	0	0.243998	0	-0.195321	0	0	0	0	0	0	1.3858	0	-0.420605	0	0	0
1.64	0	0	0	0.262661	0	-0.196517	0	0	0	0	0	0	1.36285	0	-0.416795	0	0	0
1.645	0	0	0	0.28282	0	-0.197589	0	0	0	0	0	0	1.33776	0	-0.412056	0	0	0
1.65	0	0	0	0.30409	0	-0.198537	0	0	0	0	0	0	1.31015	0	-0.407485	0	0	0
1.655	0	0	0	0.326525	0	-0.199336	0	0	0	0	0	0	1.28022	0	-0.402127	0	0	0
1.66	0	0	0	0.349737	0	-0.200308	0	0	0	-76.5787	124.66	-31.8672	1.21166	0	-0.423726	0	-24.6085	0
1.665	0	0	0	0.373911	0	-0.201172	0	0	0	-121.744	342.156	-8.31324	1.08938	0	-0.458602	0	-9.20794	0
1.67	0	0	0	0.398693	0	-0.201804	0	0	0	-194.227	660.34	41.5797	1.05172	0	-0.434665	0	4.91872	0
1.675	0	0	0	0.424044	0	-0.203361	0	0	0	-277.935	1042.22	120.523	1.03128	0	-0.418617	0	17.9216	0
1.68	0	0	0	0.449364	0	-0.203456	0	0	0	-334.27	1448.96	216.056	1.0151	0	-0.405646	0	21.8724	0
1.685	0	0	0	0.474909	0	-0.204571	0	0	0	-352.64	1882.4	300.344	0.995322	0	-0.394193	0	5.22874	0
1.69	0	0	0	0.500633	0	-0.205496	0	0	0	-364.192	2345.75	342.966	0.968277	0	-0.383387	0	-29.3567	0
1.695	0	0	0	0.525847	0	-0.207169	0	0	0	-374.524	2793.36	315.864	0.944875	0	-0.374165	0	-60.4831	0
1.7	0	0	0	0.550815	0	-0.209337	0	0	0	-377.285	3162.12	212.965	0.931525	0	-0.366869	0	-70.1771	0
1.705	0	0	0	0.575972	0	-0.21086	0	0	0	-384.702	3407.93	55.8942	0.922777	0	-0.361728	0	-57.0112	0
1.71	0	0	0	0.601172	0	-0.212779	0	0	0	-390.482	3511.47	-111.948	0.911637	0	-0.358918	0	-30.1407	0
1.715	0	0	0	0.626892	0	-0.215842	0	0	0	-367.046	3488.66	-239.978	0.892685	0	-0.358242	0	-0.429306	0
1.72	0	0	0	0.654525	0	-0.218254	0	0	0	-288.943	3377.29	-287.79	0.862673	0	-0.358787	0	25.5474	0
1.725	0	0	0	0.684097	0	-0.222109	0	0	0	-155.444	3217.7	-246.925	0.823993	0	-0.3593	0	39.2073	0
1.73	0	0	0	0.716824	0	-0.223079	0	0	0	-0.164208	3037.58	-149.134	0.784176	0	-0.358615	0	31.1306	0
1.735	0	0	0	0.751628	0	-0.224026	0	0	0	140.428	2836.38	-47.0506	0.749483	0	-0.356838	0	2.90846	0
1.74	0	0	0	0.788663	0	-0.224858	0	0	0	253.213	2601.05	25.7903	0.721316	0	-0.354509	0	-31.4245	0
1.745	0	0	0	0.827768	0	-0.224394	0	0	0	348.633	2325.51	66.1882	0.698122	0	-0.352132	0	-53.8505	0
1.75	0	0	0	0.868475	0	-0.223325	0	0	0	431.852	2002.18	85.7121	0.67262	0	-0.350177	0	-57.0064	0
1.755	0	0	0	0.910532	0	-0.221114	0	0	0	494.091	1620.29	89.1807	0.629946	0	-0.350175	0	-50.5884	0
1.76	0	0	0	0.95377	0	-0.217616	0	0	0	527.008	1194.41	77.2218	0.54886	0	-0.354137	0	-47.3808	0
1.765	0	0	0	0.99675	0	-0.214473	0	0	0	519.026	776.323	48.8408	0.389538	0	-0.365326	0	-42.0683	0
1.77	0	0	0	1.03955	0	-0.211522	0	0	0	463.549	422.577	0.344664	0.0384519	0	-0.396001	0	-2.51252	0
1.775	0	0	0	1.0816	0	-0.208535	0	0	0	368.275	170.844	-63.8675	-0.290696	0	-0.431139	0	169.559	0
1.78	0	0	0	1.12176	0	-0.207019	0	0	0	252.36	24.0123	-123.105	0.359081	0	-0.367034	0	2591.23	0
1.785	0	0	0	1.16095	0	-0.206975	0	0	0	0	0	0	0.332709	0	-0.367659	0	0	0
1.79	0	0	0	1.19747	0	-0.206625	0	0	0	0	0	0	0.309334	0	-0.367503	0	0	0
1.795	0	0	0	1.2325	0	-0.206937	0	0	0	0	0	0	0.289564	0	-0.36396	0	0	0
1.8	0	0	0	1.26607	0	-0.207825	0	0	0	0	0	0	0.267882	0	-0.360404	0	0	0
1.805	0	0	0	1.29737	0	-0.208301	0	0	0	0	0	0	0.248889	0	-0.357124	0	0	0
1.81	0	0	0	1.3265	0	-0.20903	0	0	0	0	0	0	0.233542	0	-0.352926	0	0	0
1.815	0	0	0	1.3528	0	-0.209577	0	0	0	0	0	0	0.221137	0	-0.34862	0	0	0
1.82	0	0	0	1.37601	0	-0.209869	0	0	0	0	0	0	0.209334	0	-0.344512	0	0	0
1.825	0	0	0	1.39605	0	-0.209627	0	0	0	0	0	0	0.1993	0	-0.341655	0	0	0
1.83	0	0	0	1.41221	0	-0.208446	0	0	0	0	0	0	0.193814	0	-0.337633	0	0	0
1.835	0	0	0	1.42424	0	-0.206628	0	0	0	0	0	0	0.191185	0	-0.337355	0	0	0
1.84	0	0	0	1.43077	0	-0.204421	0	0	0	0	0	0	0.191703	0	-0.335284	0	0	0
1.845	0	0	0	1.43373	0	-0.20176	0	0	0	0	0	0	0.194875	0	-0.33434	0	0	0
1.85	0	0	0	1.433	0	-0.198631	0	0	0	0	0	0	0.200866	0	-0.333326	0	0	0
1.855	0	0	0	1.42896	0	-0.195172	0	0	0	0	0	0	0.2094	0	-0.332913	0	0	0
1.86	0	0	0	1.4215	0	-0.191251	0	0	0	0	0	0	0.220028	0	-0.33271	0	0	0
1.865	0	0	0	1.40895	0	-0.188458	0	0	0	0	0	0	0.231795	0	-0.333485	0	0	0
1.87	0	0	0	1.39272	0	-0.185723	0	0	0	0	0	0	0.245832	0	-0.334242	0	0	0
1.875	0	0	0	1.37359	0	-0.183528	0	0	0	0	0	0	0.261365	0	-0.335986	0	0	0
1.88	0	0	0	1.35148	0	-0.182236	0	0	0	0	0	0	0.278954	0	-0.336226	0	0	0
1.885	0	0	0	1.32609	0	-0.181151	0	0	0	0	0	0	0.297804	0	-0.337981	0	0	0
1.89	-39.2879	68.7197	-34.7601	1.29821	0	-0.181519	0	3.1329	0	0	0	0	0.317812	0	-0.339998	0	0	0
1.895	-123.569	252.246	-32.9931	1.10373	0	-0.133946	0	5.70268	0	0	0	0	0.338658	0	-0.342378	0	0	0
1.9	-230.397	543.098	-55.1852	1.10057	0	-0.151482	0	6.4514	0	0	0	0	0.360183	0	-0.345013	0	0	0
1.905	-335.494	920.422	-105.23	1.09446	0	-0.166019	0	0.213325	0	0	0	0	0.382128	0	-0.348561	0	0	0
1.91	-401.57	1342.28	-166.357	1.08804	0	-0.178295	0	-11.9863	0	0	0	0	0.404394	0	-0.351655	0	0	0
1.915	-416.774	1790.74	-209.067	1.07676	0	-0.188351	0	-12.9045	0	0	0	0	0.426762	0	-0.354891	0	0	0
1.92	-421.107	2245.79	-219.391	1.05576	0	-0.196557	0	4.64952	0	0	0	0	0.44895	0	-0.357252	0	0	0
1.925	-450.643	2650.6	-208.458	1.03064	0	-0.20252	0	22.1513	0	0	0	0	0.470828	0	-0.359208	0	0	0
1.93	-495.909	2947.18	-192.396	1.00899	0	-0.206586	0	24.866	0	0	0	0	0.492518	0	-0.360743	0	0	0
1.935	-529.392	3123.31	-168.883	0.991143	0	-0.209256	0	22.3864	0	0	0	0	0.51405	0	-0.361341	0	0	0
1.94	-531.651	3195.41	-130.375	0.973999	0	-0.211303	0	26.1377	0	0	0	0	0.535851	0	-0.361117	0	0	0
1.945	-501.887	3175.58	-74.5378	0.953602	0	-0.212294	0	33.0754	0	0	0	0	0.558378	0	-0.360257	0	0	0
1.95	-435.609	3075.01	-15.7896	0.926484	0	-0.212221	0	29.9716	0	0	0	0	0.582214	0	-0.359507	0	0	0
1.955	-320.434	2921.11	31.0883	0.89058	0	-0.211397	0	9.73638	0	0	0	0	0.60789	0	-0.358537	0	0	0
1.96	-159.095	2743.73	54.7986	0.847378	0	-0.210925	0	-17.3591	0	0	0	0	0.635873	0	-0.357451	0	0	0
1.965	19.8081	2546.29	57.231	0.803155	0	-0.210769	0	-35.3037	0	0	0	0	0.662918	0	-0.35579	0	0	0
1.97	173.477	2316.37	40.5747	0.763973	0	-0.210654	0	-40.5613	0	0	0	0	0.69858	0	-0.3559	0	0	0
1.975	282.961	2047.55	3.47887	0.731091	0	-0.210539	0	-35.3484	0	0	0	0	0.737758	0	-0.356588	0	0	0
1.98	359.499	1746.32	-53.4008	0.701677	0	-0.210977	0	-16.7321	0	0	0	0	0.774601	0	-0.356401	0	0	0
1.985	416.715	1422.73	-120.305	0.669689	0	-0.212601	0	16.7019	0	0	0	0	0.816106	0	-0.356713	0	0	0
1.99	450.427	1086.99	-175.591	0.622729	0	-0.215778	0	59.4301	0	0	0	0	0.859346	0	-0.356985	0	0	0
1.995	450.457	754.173	-193.44	0.536164	0	-0.21953	0	100.59	0	0	0	0	0.904031	0	-0.357461	0	0	0
2	419.2	452.488	-158.941	0.360679	0	-0.221735	0	121.039	0	0	0	0	0.950232	0	-0.359018	0	0	0
2.005	360.273	217.094	-76.4952	0.0480386	0	-0.215568	0	89.0984	0	0	0	0	0.995596	0	-0.360577	0	0	0
2.01	273.361	65.3399	30.3474	0.379757	0	-0.198029	0	-106.99	0	0	0	0	1.04037	0	-0.362501	0	0	0
2.015	0	0	0	0.349176	0	-0.195988	0	0	0	0	0	0	1.08453	0	-0.36552	0	0	0
2.02	0	0	0	0.319122	0	-0.193007	0	0	0	0	0	0	1.12816	0	-0.367425	0	0	0
2.025	0	0	0	0.290522	0	-0.18978	0	0	0	0	0	0	1.17052	0	-0.367688	0	0	0
2.03	0	0	0	0.261407	0	-0.187979	0	0	0	0	0	0	1.21148	0	-0.366705	0	0	0
2.035	0	0	0	0.23026	0	-0.187885	0	0	0	0	0	0	1.25091	0	-0.364711	0	0	0
2.04	0	0	0	0.205438	0	-0.185772	0	0	0	0	0	0	1.28826	0	-0.364456	0	0	0
2.045	0	0	0	0.185561	0	-0.185852	0	0	0	0	0	0	1.32289	0	-0.364088	0	0	0
2.05	0	0	0	0.17024	0	-0.186061	0	0	0	0	0	0	1.35432	0	-0.363567	0	0	0
2.055	0	0	0	0.156762	0	-0.187747	0	0	0	0	0	0	1.38051	0	-0.363206	0	0	0
2.06	0	0	0	0.146162	0	-0.190504	0	0	0	0	0	0	1.40255	0	-0.363163	0	0	0
2.065	0	0	0	0.137917	0	-0.193245	0	0	0	0	0	0	1.41853	0	-0.363884	0	0	0
2.07	0	0	0	0.132294	0	-0.196341	0	0	0	0	0	0	1.42895	0	-0.365461	0	0	0
2.075	0	0	0	0.127295	0	-0.20183	0	0	0	0	0	0	1.43425	0	-0.368596	0	0	0
2.08	0	0	0	0.126197	0	-0.205306	0	0	0	0	0	0	1.43442	0	-0.373353	0	0	0
2.085	0	0	0	0.128019	0	-0.20855	0	0	0	0	0	0	1.43034	0	-0.379194	0	0	0
2.09	0	0	0	0.132964	0	-0.211571	0	0	0	0	0	0	1.42291	0	-0.386713	0	0	0
2.095	0	0	0	0.140819	0	-0.214199	0	0	0	0	0	0	1.41226	0	-0.394383	0	0	0
2.1	0	0	0	0.150792	0	-0.216679	0	0	0	0	0	0	1.39819	0	-0.400238	0	0	0
2.105	0	0	0	0.164432	0	-0.219088	0	0	0	0	0	0	1.38062	0	-0.403639	0	0	0
2.11	0	0	0	0.179647	0	-0.221139	0	0	0	0	0	0	1.36112	0	-0.404502	0	0	0
2.115	0	0	0	0.196691	0	-0.22281	0	0	0	0	0	0	1.33878	0	-0.404191	0	0	0
2.12	0	0	0	0.217044	0	-0.222701	0	0	0	0	0	0	1.31395	0	-0.402397	0	0	0
2.125	0	0	0	0.235515	0	-0.224408	0	0	0	0	0	0	1.28656	0	-0.40014	0	0	0
2.13	0	0	0	0.256718	0	-0.225113	0	0	0	-61.0097	103.487	-1.26965	1.21988	0	-0.414772	0	-9.43266	0
2.135	0	0	0	0.279212	0	-0.225406	0	0	0	-113.953	303.088	0.39613	1.05469	0	-0.461578	0	-11.0317	0
2.14	0	0	0	0.302002	0	-0.226587	0	0	0	-191.694	601.753	34.8127	1.03918	0	-0.432543	0	-6.50116	0
2.145	0	0	0	0.325495	0	-0.22841	0	0	0	-275.367	965.274	106.912	1.03806	0	-0.413245	0	6.90078	0
2.15	0	0	0	0.349686	0	-0.22965	0	0	0	-327.398	1347.34	192.849	1.0385	0	-0.397759	0	19.1605	0
2.155	0	0	0	0.374411	0	-0.228914	0	0	0	-332.99	1741.4	254.017	1.0311	0	-0.384693	0	12.9093	0
2.16	0	0	0	0.39934	0	-0.226301	0	0	0	-321.212	2146.29	263.761	1.00877	0	-0.373216	0	-14.7673	0
2.165	0	0	0	0.423765	0	-0.226174	0	0	0	-304.692	2517.67	208.436	0.980505	0	-0.36461	0	-43.4523	0
2.17	0	0	0	0.447778	0	-0.227457	0	0	0	-281.829	2794.38	99.568	0.954782	0	-0.35929	0	-52.8635	0
2.175	0	0	0	0.471124	0	-0.22758	0	0	0	-261.129	2944.78	-32.148	0.929989	0	-0.357015	0	-40.2846	0
2.18	0	0	0	0.494229	0	-0.227047	0	0	0	-236.604	2976.8	-150.497	0.902102	0	-0.357067	0	-16.8821	0
2.185	0	0	0	0.516364	0	-0.228852	0	0	0	-192.474	2933.22	-225.05	0.867992	0	-0.358452	0	2.93702	0
2.19	0	0	0	0.538267	0	-0.231746	0	0	0	-114.763	2861.48	-238.322	0.828489	0	-0.359578	0	14.2446	0
2.195	0	0	0	0.562067	0	-0.232925	0	0	0	-4.86008	2785.63	-200.071	0.788247	0	-0.359562	0	19.235	0
2.2	0	0	0	0.587367	0	-0.234638	0	0	0	113.466	2702.02	-140.894	0.751324	0	-0.358625	0	18.2439	0
2.205	0	0	0	0.614978	0	-0.23696	0	0	0	219.066	2588.44	-88.3066	0.719166	0	-0.357559	0	13.6125	0
2.21	0	0	0	0.645117	0	-0.238842	0	0	0	305.147	2423.48	-45.1784	0.691168	0	-0.356624	0	7.722	0
2.215	0	0	0	0.678073	0	-0.241005	0	0	0	374.537	2200.01	2.98654	0.665674	0	-0.355569	0	-3.46988	0
2.22	0	0	0	0.714353	0	-0.241495	0	0	0	425.525	1916.54	63.8722	0.638141	0	-0.354361	0	-25.0939	0
2.225	0	0	0	0.753368	0	-0.241591	0	0	0	454.981	1570.28	123.861	0.59895	0	-0.353815	0	-56.4305	0
2.23	0	0	0	0.795177	0	-0.241517	0	0	0	462.373	1175.72	155.426	0.53087	0	-0.355822	0	-89.7101	0
2.235	0	0	0	0.839504	0	-0.240971	0	0	0	446.489	775.385	134.495	0.405901	0	-0.363623	0	-104.781	0
2.24	0	0	0	0.88566	0	-0.239975	0	0	0	407.517	427.437	54.8997	0.190745	0	-0.383112	0	-62.937	0
2.245	0	0	0	0.933275	0	-0.238045	0	0	0	343.842	176.564	-62.381	0.0695069	0	-0.399103	0	78.6052	0
2.25	0	0	0	0.982122	0	-0.235938	0	0	0	259.04	28.6256	-167.587	0.313176	0	-0.372246	0	298.919	0
2.255	0	0	0	1.02963	0	-0.234237	0	0	0	0	0	0	0.283585	0	-0.373768	0	0	0
2.26	0	0	0	1.07613	0	-0.232337	0	0	0	0	0	0	0.25445	0	-0.374514	0	0	0
2.265	0	0	0	1.12053	0	-0.232834	0	0	0	0	0	0	0.227627	0	-0.373289	0	0	0
2.27	0	0	0	1.16121	0	-0.233609	0	0	0	0	0	0	0.205625	0	-0.368404	0	0	0
2.275	0	0	0	1.20004	0	-0.235781	0	0	0	0	0	0	0.183943	0	-0.363951	0	0	0
2.28	0	0	0	1.23598	0	-0.238281	0	0	0	0	0	0	0.164166	0	-0.360833	0	0	0
2.285	0	0	0	1.26727	0	-0.240496	0	0	0	0	0	0	0.151003	0	-0.356992	0	0	0
2.29	0	0	0	1.29505	0	-0.243213	0	0	0	0	0	0	0.141996	0	-0.353132	0	0	0
2.295	0	0	0	1.31923	0	-0.245351	0	0	0	0	0	0	0.132818	0	-0.34962	0	0	0
2.3	0	0	0	1.34003	0	-0.247541	0	0	0	0	0	0	0.121976	0	-0.347385	0	0	0
2.305	0	0	0	1.35653	0	-0.248919	0	0	0	0	0	0	0.116329	0	-0.347372	0	0	0
